<?xml version="1.0" encoding="UTF-8" standalone="no"?>
<svg
   width="32.000004"
   height="32.000004"
   viewBox="0 0 32.000004 32.000004"
   version="1.1"
   id="svg8"
   sodipodi:docname="perro.svg"
   xml:space="preserve"
   inkscape:version="1.4.2 (f4327f4, 2025-05-13)"
   xmlns:inkscape="http://www.inkscape.org/namespaces/inkscape"
   xmlns:sodipodi="http://sodipodi.sourceforge.net/DTD/sodipodi-0.dtd"
   xmlns="http://www.w3.org/2000/svg"
   xmlns:svg="http://www.w3.org/2000/svg"><sodipodi:namedview
     id="namedview8"
     pagecolor="#ffffff"
     bordercolor="#000000"
     borderopacity="0.25"
     inkscape:showpageshadow="2"
     inkscape:pageopacity="0.0"
     inkscape:pagecheckerboard="0"
     inkscape:deskcolor="#d1d1d1"
     inkscape:zoom="12.953125"
     inkscape:cx="0.73341375"
     inkscape:cy="20.882992"
     inkscape:window-width="1920"
     inkscape:window-height="1009"
     inkscape:window-x="-8"
     inkscape:window-y="-8"
     inkscape:window-maximized="1"
     inkscape:current-layer="svg8" /><defs
     id="defs1"><clipPath
       id="headClip"><rect
         x="96"
         y="64"
         width="320"
         height="304"
         rx="140"
         ry="140"
         id="rect1" /></clipPath></defs><!-- Background transparent --><!-- Ears --><!-- Left ear --><!-- Right ear --><!-- Head base (two halves) --><!-- Eyebrows --><!-- Left eyebrow --><!-- Right eyebrow --><!-- Eyes --><!-- Muzzle (two tones) --><!-- Nose and center line --><!-- Chin / lower mouth shadow --><path
     style="fill:#8080ff;stroke-width:0.109728"
     d="m 8.0200449,31.895956 c -0.12076,-0.02551 -0.33072,-0.07008 -0.46657,-0.09904 l -0.24701,-0.05266 v -3.39775 -3.397752 h 2.08586 2.0858701 v 3.509513 3.509514 l -1.6192901,-0.01272 c -0.89061,-0.007 -1.7181,-0.0336 -1.83886,-0.05911 z m 4.7755401,-3.148114 v -3.219941 l 0.797,0.779732 c 0.84207,0.823829 1.5103,1.240422 2.63399,1.642102 l 0.68586,0.245169 0.03,1.88644 0.03,1.886441 h -2.08846 -2.08846 z m 5.48913,1.426458 v -1.825702 h 0.47095 c 0.58337,0 1.58879,-0.255295 2.16803,-0.550504 0.24015,-0.122394 0.6674,-0.44342 0.94945,-0.713393 0.28204,-0.269972 0.52959,-0.490859 0.55011,-0.490859 0.0205,0 0.024,1.120629 0.008,2.490286 l -0.0295,2.490286 -0.49402,0.148786 c -0.27171,0.08184 -1.198,0.177589 -2.05842,0.212794 l -1.5644,0.06401 z M 4.9461349,30.813923 c -1.97872,-1.117071 -3.48836,-2.839064 -4.29937996,-4.904155 -0.1605,-0.408669 -0.26461,-0.770211 -0.23136,-0.803429 0.0333,-0.03322 1.30092996,-0.09001 2.81706996,-0.126212 l 2.75661,-0.06581 v 3.19772 c 0,1.758747 -0.0371,3.197718 -0.0823,3.197714 -0.0453,-3e-6 -0.47755,-0.223122 -0.9606,-0.495821 z M 23.664055,28.094898 v -3.119961 l 2.44266,-0.05648 c 2.54313,-0.0588 2.91817,-0.118872 3.93774,-0.630673 0.26455,-0.132801 0.64481,-0.364185 0.84501,-0.514187 0.2002,-0.150001 0.38453,-0.252222 0.40962,-0.227157 0.0251,0.02506 -0.22393,0.592928 -0.55338,1.261919 -1.25672,2.551945 -3.16043,4.501744 -5.62976,5.766036 -0.52683,0.269733 -1.06902,0.524185 -1.20488,0.565446 l -0.24701,0.07502 z m -6.6344,-1.230416 c -1.94488,-0.533164 -3.43674,-2.015253 -3.63324,-3.609463 -0.16393,-1.33 0.57716,-3.18326 1.74984,-4.37582 1.13454,-1.15379 2.37266,-1.6047 3.53991,-1.28921 1.35197,0.36542 2.60985,2.45517 3.06905,5.0987 0.19118,1.100639 0.0919,2.066858 -0.28906,2.812833 -0.2914,0.570618 -1.03793,1.176393 -1.68706,1.368972 -0.66666,0.197776 -2.01682,0.194824 -2.74944,-0.006 z M 0.02078494,23.056399 c -0.0794,-0.7741 0.0766,-2.25022 0.33315,-3.15257 0.82321996,-2.89549 3.05222996,-5.30241 5.89420996,-6.36466 1.14531,-0.42808 2.0106,-0.5408 4.1668901,-0.54279 2.01768,-0.002 2.49033,-0.0709 2.49033,-0.36372 0,-0.22795 -1.3217,-1.61228 -1.53934,-1.61228 -0.11246,0 -1.5483601,0.2714 -3.1908901,0.60313 -3.20846,0.64798 -3.45427,0.6581 -4.07806,0.16791 -0.42383,-0.33304 -0.55956,-0.78519 -0.49718,-1.65618 0.10798,-1.5076898 1.08303,-2.9272498 2.51099,-3.6557698 0.38585,-0.19685 0.71776,-0.44133 0.73756,-0.54327 0.0224,-0.11515 -0.37867,-0.61169 -1.05876,-1.31091 -1.12704,-1.15874 -1.33555,-1.52599 -1.33696,-2.3548 -10e-4,-0.779 0.6471,-1.72489996 1.42656,-2.08102996 0.56654,-0.25884 2.79903,-0.25066 3.67116,0.0135 1.4980301,0.45367 2.9853801,1.44669996 3.8361901,2.56121996 0.48134,0.63055 -0.0255,0.45394 4.95297,1.72602 6.28891,1.60692 7.43609,2.09734 9.48455,4.05466 2.72275,2.6015998 4.30631,6.6077198 4.16741,10.5427998 -0.0358,1.01517 -0.0719,1.16959 -0.45236,1.93808 -0.63249,1.27748 -1.61935,2.06472 -3.07282,2.45127 -0.40787,0.10847 -1.27182,0.153486 -2.96347,0.154409 l -2.38777,0.0013 -9.9e-4,-0.520939 c -0.001,-0.55678 -0.41587,-2.31944 -0.7162,-3.04341 -0.79891,-1.92587 -1.63913,-2.95401 -2.89035,-3.53679 -2.91687,-1.3586 -6.69043,1.48091 -7.36871,5.54475 -0.0736,0.44087 -0.1034,0.96337 -0.0663,1.16112 l 0.0675,0.359544 -4.4658001,0.0727 c -2.45619,0.03998 -5.16722,0.0727 -6.0245,0.0727 H 0.09110494 Z m 8.03603996,-3.19805 c 0.39725,-0.20521 0.62023,-0.64493 0.6058,-1.19461 -0.0157,-0.59667 -0.6028,-1.1727 -1.19533,-1.1727 -1.22019,0 -1.79114,1.38919 -0.9092,2.21221 0.37951,0.35417 0.99092,0.41744 1.49873,0.1551 z"
     id="path8" /></svg>
