<?xml version="1.0" encoding="UTF-8" standalone="no"?>
<svg
   width="32"
   height="26.172747"
   viewBox="0 0 32 26.172747"
   version="1.1"
   id="svg8"
   sodipodi:docname="favicon.svg"
   xml:space="preserve"
   inkscape:version="1.4.2 (f4327f4, 2025-05-13)"
   xmlns:inkscape="http://www.inkscape.org/namespaces/inkscape"
   xmlns:sodipodi="http://sodipodi.sourceforge.net/DTD/sodipodi-0.dtd"
   xmlns="http://www.w3.org/2000/svg"
   xmlns:svg="http://www.w3.org/2000/svg"><sodipodi:namedview
     id="namedview8"
     pagecolor="#ffffff"
     bordercolor="#000000"
     borderopacity="0.25"
     inkscape:showpageshadow="2"
     inkscape:pageopacity="0.0"
     inkscape:pagecheckerboard="0"
     inkscape:deskcolor="#d1d1d1"
     inkscape:zoom="9.1592425"
     inkscape:cx="20.689484"
     inkscape:cy="15.121338"
     inkscape:window-width="1920"
     inkscape:window-height="1009"
     inkscape:window-x="-8"
     inkscape:window-y="-8"
     inkscape:window-maximized="1"
     inkscape:current-layer="svg8" /><defs
     id="defs1"><clipPath
       id="headClip"><rect
         x="96"
         y="64"
         width="320"
         height="304"
         rx="140"
         ry="140"
         id="rect1" /></clipPath></defs><!-- Background transparent --><!-- Ears --><!-- Left ear --><!-- Right ear --><!-- Head base (two halves) --><!-- Eyebrows --><!-- Left eyebrow --><!-- Right eyebrow --><!-- Eyes --><!-- Muzzle (two tones) --><!-- Nose and center line --><!-- Chin / lower mouth shadow --><path
     style="fill:#000000;stroke-width:0.108165"
     d="m 15.140496,25.746047 c -0.56202,-0.56202 -0.90815,-1.66543 -0.69592,-2.21849 0.27482,-0.71617 2.83574,-0.71617 3.11056,0 0.21223,0.55306 -0.1339,1.65647 -0.69592,2.21849 -0.35459,0.35459 -0.49982,0.4267 -0.85936,0.4267 -0.35954,0 -0.50477,-0.0721 -0.85936,-0.4267 z m -2.23194,-3.17977 c -1.74909,-1.5783 -4.6984402,-3.64473 -6.2649502,-4.38944 -1.03013,-0.48972 -2.39339,-0.96068 -3.94801,-1.3639 -0.62465,-0.16202 -1.19902,-0.32815 -1.27638,-0.36918 -0.0859,-0.0456 0.39819,-0.34419 1.24389,-0.7673 1.79896,-0.90001 1.98175,-0.90679 3.3856,-0.12549 2.78747,1.55134 5.2608502,3.82094 7.0712702,6.48866 0.88073,1.29779 0.81755,1.45516 -0.21142,0.52665 z m 5.4276,0.4871 c -0.0344,-0.0557 0.17176,-0.45963 0.45819,-0.89762 1.77008,-2.70671 4.75067,-5.40767 7.53524,-6.8283 1.01261,-0.51662 1.35932,-0.47644 3.00701,0.3485 0.84581,0.42346 1.32982,0.72222 1.2439,0.7678 -0.0774,0.041 -0.65173,0.20716 -1.27638,0.36918 -1.55463,0.40322 -2.91788,0.87418 -3.94802,1.3639 -1.50412,0.71506 -4.36722,2.70281 -6.00314,4.16777 -0.83611,0.74874 -0.94513,0.82474 -1.0168,0.70877 z m -4.2316,-1.16701 c -0.78018,-1.33128 -2.65234,-3.45352 -4.1564002,-4.7116 -2.21968,-1.85667 -3.79647,-2.72975 -6.31567,-3.49699 -1.01532,-0.30922 -1.86214,-0.61052 -1.88182,-0.66954 -0.0197,-0.059 0.2402,-0.34307 0.57749,-0.63123 0.76327,-0.65208 1.96498,-2.04928 4.26246,-4.9558695 0.981,-1.24107 1.8295,-2.32002 1.88557,-2.39767 0.18656,-0.25838 -1.34884,-1.9085898 -2.75593,-2.9620098 -0.8591,-0.64318 -2.17269,-1.36409 -3.07874,-1.68966 -0.29746,-0.10689 -0.58707,-0.23497 -0.64358,-0.28462 -0.14595,-0.12824 1.80655,-0.11056 2.63497,0.0239 2.03563,0.33029 3.63827,1.46597 4.68523,3.32009 0.17636,0.31232 0.35251,0.56754 0.39145,0.56715 0.0389,-4.3e-4 0.21682,-0.10031 0.3952902,-0.22205 0.91129,-0.6216 2.4026,-1.23817 3.6776,-1.52048 0.84905,-0.188 3.5857,-0.188 4.43475,0 1.275,0.28231 2.76632,0.89888 3.6776,1.52048 0.17848,0.12174 0.35459,0.22166 0.39137,0.22205 0.0368,4.3e-4 0.25581,-0.32394 0.48674,-0.72074 0.5229,-0.89849 1.53492,-1.94024 2.31461,-2.38261 1.02369,-0.58081 1.93978,-0.80336 3.56758,-0.86667 1.54224,-0.06 1.66251,-10e-4 0.70307,0.34355 -0.90606,0.32557 -2.21964,1.04648 -3.07875,1.68966 -1.40833,1.05435 -2.94224,2.7033598 -2.75592,2.9627198 0.34844,0.48501 3.49877,4.42528 4.3484,5.4387595 0.56159,0.66988 1.34317,1.50867 1.73685,1.86398 0.43174,0.38966 0.67428,0.68242 0.61118,0.73772 -0.0575,0.0504 -0.88339,0.32643 -1.83524,0.61333 -1.91098,0.57599 -2.8684,1.01233 -4.32659,1.97185 -2.33344,1.53545 -4.75847,3.97093 -6.07196,6.09812 l -0.37349,0.60485 -0.55957,-0.14515 c -0.7117,-0.18461 -1.39609,-0.18428 -2.11047,0.001 l -0.56353,0.14618 z m -1.84705,-8.51971 c 0.65223,-0.27252 0.89562,-0.95413 0.58451,-1.63692 -0.28156,-0.61796 -1.24579,-0.78614 -1.80576,-0.31495 -0.6297,0.52985 -0.50161,1.56292 0.23907,1.92819 0.42599,0.21008 0.53006,0.21259 0.98218,0.0237 z m 8.44985,-0.0198 c 0.35063,-0.16638 0.70073,-0.69996 0.70073,-1.06796 0,-0.27418 -0.29614,-0.78444 -0.56427,-0.97224 -0.50071,-0.35071 -1.37915,-0.15775 -1.64792,0.36199 -0.35587,0.68817 -0.13385,1.40774 0.52248,1.69339 0.43953,0.1913 0.55769,0.18948 0.98898,-0.0152 z M 4.5648958,6.9744675 c -1.89166,-0.72811 -3.42879,-2.5736798 -4.31825004,-5.1847798 -0.43813,-1.28615 -0.4118,-1.30758 1.07678004,-0.87621 1.2289,0.35613 2.58614,0.99389 3.61434,1.69837 0.84405,0.5783 2.40891,2.0368998 2.40891,2.2453198 0,0.21334 -1.7693,2.38671 -1.93869,2.38146 -0.0938,-0.003 -0.47318,-0.12178 -0.84309,-0.26416 z m 20.9722202,-0.86817 c -0.48625,-0.62569 -0.88409,-1.18779 -0.88409,-1.24913 0,-0.0613 0.35289,-0.4620398 0.7842,-0.8904698 1.42051,-1.41103 3.23657,-2.47292 5.2046,-3.04323 1.52742,-0.44263 1.55082,-0.42438 1.11132,0.86622 -0.63042,1.85126 -1.72035,3.5079498 -2.88169,4.3801998 -0.62055,0.46608 -1.9298,1.07402 -2.31296,1.07402 -0.0755,0 -0.53513,-0.51192 -1.02138,-1.13761 z"
     id="path1" /></svg>
